<svg width="255" height="29" viewBox="0 0 255 29" fill="none" xmlns="http://www.w3.org/2000/svg">
<path d="M45.9345 23.24C44.6385 23.24 43.4225 22.992 42.2865 22.496C41.1665 22 40.1745 21.312 39.3105 20.432C38.4625 19.536 37.7985 18.512 37.3185 17.36C36.8385 16.192 36.5985 14.944 36.5985 13.616C36.5985 12.304 36.8305 11.072 37.2945 9.92C37.7745 8.752 38.4385 7.728 39.2865 6.848C40.1505 5.968 41.1425 5.28 42.2625 4.784C43.3985 4.272 44.6225 4.016 45.9345 4.016C47.0865 4.016 48.1345 4.184 49.0785 4.52C50.0225 4.856 50.9345 5.392 51.8145 6.128C51.9585 6.24 52.0385 6.376 52.0545 6.536C52.0865 6.68 52.0705 6.824 52.0065 6.968C51.9425 7.096 51.8465 7.192 51.7185 7.256C51.6865 7.384 51.6065 7.48 51.4785 7.544C51.3505 7.608 51.1985 7.632 51.0225 7.616C50.8625 7.6 50.7025 7.528 50.5425 7.4C49.9185 6.856 49.2385 6.456 48.5025 6.2C47.7665 5.928 46.9105 5.792 45.9345 5.792C44.8945 5.792 43.9185 6 43.0065 6.416C42.1105 6.832 41.3185 7.4 40.6305 8.12C39.9425 8.84 39.3985 9.672 38.9985 10.616C38.6145 11.56 38.4225 12.56 38.4225 13.616C38.4225 14.704 38.6145 15.72 38.9985 16.664C39.3985 17.608 39.9425 18.44 40.6305 19.16C41.3185 19.88 42.1105 20.448 43.0065 20.864C43.9185 21.264 44.8945 21.464 45.9345 21.464C46.8145 21.464 47.6465 21.32 48.4305 21.032C49.2145 20.744 49.9585 20.328 50.6625 19.784C50.8545 19.624 51.0545 19.56 51.2625 19.592C51.4865 19.624 51.6785 19.72 51.8385 19.88C51.9985 20.04 52.0785 20.248 52.0785 20.504C52.0785 20.632 52.0545 20.752 52.0065 20.864C51.9745 20.96 51.9105 21.064 51.8145 21.176C50.9985 21.928 50.0865 22.464 49.0785 22.784C48.0705 23.088 47.0225 23.24 45.9345 23.24ZM60.3474 23.12C59.0674 23.12 57.9234 22.832 56.9154 22.256C55.9074 21.68 55.1154 20.888 54.5394 19.88C53.9634 18.872 53.6754 17.728 53.6754 16.448C53.6754 15.152 53.9634 14 54.5394 12.992C55.1154 11.984 55.9074 11.192 56.9154 10.616C57.9234 10.04 59.0674 9.752 60.3474 9.752C61.6274 9.752 62.7634 10.04 63.7554 10.616C64.7634 11.192 65.5554 11.984 66.1314 12.992C66.7074 14 67.0034 15.152 67.0194 16.448C67.0194 17.728 66.7234 18.872 66.1314 19.88C65.5554 20.888 64.7634 21.68 63.7554 22.256C62.7634 22.832 61.6274 23.12 60.3474 23.12ZM60.3474 21.44C61.2754 21.44 62.1074 21.224 62.8434 20.792C63.5794 20.36 64.1554 19.768 64.5714 19.016C64.9874 18.264 65.1954 17.408 65.1954 16.448C65.1954 15.488 64.9874 14.632 64.5714 13.88C64.1554 13.112 63.5794 12.512 62.8434 12.08C62.1074 11.648 61.2754 11.432 60.3474 11.432C59.4194 11.432 58.5874 11.648 57.8514 12.08C57.1154 12.512 56.5314 13.112 56.0994 13.88C55.6834 14.632 55.4754 15.488 55.4754 16.448C55.4754 17.408 55.6834 18.264 56.0994 19.016C56.5314 19.768 57.1154 20.36 57.8514 20.792C58.5874 21.224 59.4194 21.44 60.3474 21.44ZM81.5096 23C81.2376 23 81.0136 22.912 80.8376 22.736C80.6616 22.56 80.5736 22.344 80.5736 22.088V15.848C80.5736 14.856 80.3816 14.04 79.9976 13.4C79.6296 12.76 79.1176 12.28 78.4616 11.96C77.8216 11.64 77.0936 11.48 76.2776 11.48C75.4936 11.48 74.7816 11.632 74.1416 11.936C73.5176 12.24 73.0216 12.656 72.6536 13.184C72.2856 13.712 72.1016 14.312 72.1016 14.984H70.7816C70.8136 13.976 71.0856 13.08 71.5976 12.296C72.1096 11.496 72.7896 10.872 73.6376 10.424C74.4856 9.96 75.4296 9.728 76.4696 9.728C77.6056 9.728 78.6216 9.968 79.5176 10.448C80.4136 10.912 81.1176 11.6 81.6296 12.512C82.1576 13.424 82.4216 14.536 82.4216 15.848V22.088C82.4216 22.344 82.3336 22.56 82.1576 22.736C81.9816 22.912 81.7656 23 81.5096 23ZM71.1896 23C70.9016 23 70.6696 22.92 70.4936 22.76C70.3336 22.584 70.2536 22.36 70.2536 22.088V10.808C70.2536 10.52 70.3336 10.296 70.4936 10.136C70.6696 9.96 70.9016 9.872 71.1896 9.872C71.4616 9.872 71.6776 9.96 71.8376 10.136C72.0136 10.296 72.1016 10.52 72.1016 10.808V22.088C72.1016 22.36 72.0136 22.584 71.8376 22.76C71.6776 22.92 71.4616 23 71.1896 23ZM91.2718 23C90.4238 23 89.6638 22.8 88.9918 22.4C88.3358 22 87.8158 21.456 87.4318 20.768C87.0478 20.064 86.8558 19.264 86.8558 18.368V6.632C86.8558 6.36 86.9358 6.136 87.0958 5.96C87.2718 5.784 87.4958 5.696 87.7678 5.696C88.0398 5.696 88.2638 5.784 88.4398 5.96C88.6158 6.136 88.7038 6.36 88.7038 6.632V18.368C88.7038 19.184 88.9438 19.856 89.4238 20.384C89.9038 20.896 90.5198 21.152 91.2718 21.152H91.9198C92.1758 21.152 92.3838 21.24 92.5438 21.416C92.7038 21.592 92.7838 21.816 92.7838 22.088C92.7838 22.36 92.6878 22.584 92.4958 22.76C92.3038 22.92 92.0638 23 91.7758 23H91.2718ZM85.2958 11.96C85.0558 11.96 84.8558 11.888 84.6958 11.744C84.5358 11.584 84.4558 11.392 84.4558 11.168C84.4558 10.928 84.5358 10.736 84.6958 10.592C84.8558 10.432 85.0558 10.352 85.2958 10.352H91.4158C91.6558 10.352 91.8558 10.432 92.0158 10.592C92.1758 10.736 92.2558 10.928 92.2558 11.168C92.2558 11.392 92.1758 11.584 92.0158 11.744C91.8558 11.888 91.6558 11.96 91.4158 11.96H85.2958ZM96.2 14.912C96.248 13.92 96.504 13.032 96.968 12.248C97.448 11.464 98.064 10.848 98.816 10.4C99.584 9.952 100.432 9.728 101.36 9.728C102.096 9.728 102.664 9.832 103.064 10.04C103.464 10.248 103.616 10.552 103.52 10.952C103.456 11.192 103.344 11.352 103.184 11.432C103.04 11.512 102.856 11.544 102.632 11.528C102.424 11.512 102.184 11.496 101.912 11.48C101.016 11.4 100.216 11.496 99.512 11.768C98.824 12.024 98.272 12.424 97.856 12.968C97.456 13.512 97.256 14.16 97.256 14.912H96.2ZM96.344 23C96.056 23 95.832 22.92 95.672 22.76C95.512 22.6 95.432 22.376 95.432 22.088V10.784C95.432 10.496 95.512 10.272 95.672 10.112C95.832 9.952 96.056 9.872 96.344 9.872C96.632 9.872 96.856 9.952 97.016 10.112C97.176 10.272 97.256 10.496 97.256 10.784V22.088C97.256 22.376 97.176 22.6 97.016 22.76C96.856 22.92 96.632 23 96.344 23ZM111.079 23.12C109.799 23.12 108.655 22.832 107.647 22.256C106.639 21.68 105.847 20.888 105.271 19.88C104.695 18.872 104.407 17.728 104.407 16.448C104.407 15.152 104.695 14 105.271 12.992C105.847 11.984 106.639 11.192 107.647 10.616C108.655 10.04 109.799 9.752 111.079 9.752C112.359 9.752 113.495 10.04 114.487 10.616C115.495 11.192 116.287 11.984 116.863 12.992C117.439 14 117.735 15.152 117.751 16.448C117.751 17.728 117.455 18.872 116.863 19.88C116.287 20.888 115.495 21.68 114.487 22.256C113.495 22.832 112.359 23.12 111.079 23.12ZM111.079 21.44C112.007 21.44 112.839 21.224 113.575 20.792C114.311 20.36 114.887 19.768 115.303 19.016C115.719 18.264 115.927 17.408 115.927 16.448C115.927 15.488 115.719 14.632 115.303 13.88C114.887 13.112 114.311 12.512 113.575 12.08C112.839 11.648 112.007 11.432 111.079 11.432C110.151 11.432 109.319 11.648 108.583 12.08C107.847 12.512 107.263 13.112 106.831 13.88C106.415 14.632 106.207 15.488 106.207 16.448C106.207 17.408 106.415 18.264 106.831 19.016C107.263 19.768 107.847 20.36 108.583 20.792C109.319 21.224 110.151 21.44 111.079 21.44ZM123.817 23C123.177 23 122.601 22.824 122.089 22.472C121.593 22.12 121.201 21.632 120.913 21.008C120.641 20.384 120.505 19.664 120.505 18.848V5.168C120.505 4.896 120.585 4.68 120.745 4.52C120.921 4.344 121.145 4.256 121.417 4.256C121.689 4.256 121.905 4.344 122.065 4.52C122.241 4.68 122.329 4.896 122.329 5.168V18.848C122.329 19.536 122.465 20.096 122.737 20.528C123.025 20.96 123.385 21.176 123.817 21.176H124.417C124.657 21.176 124.849 21.264 124.993 21.44C125.137 21.6 125.209 21.816 125.209 22.088C125.209 22.36 125.105 22.584 124.897 22.76C124.705 22.92 124.449 23 124.129 23H123.817ZM132.624 23.12C131.328 23.12 130.176 22.84 129.168 22.28C128.176 21.704 127.392 20.912 126.816 19.904C126.256 18.896 125.976 17.744 125.976 16.448C125.976 15.136 126.24 13.984 126.768 12.992C127.312 11.984 128.056 11.192 129 10.616C129.944 10.04 131.032 9.752 132.264 9.752C133.48 9.752 134.536 10.032 135.432 10.592C136.344 11.136 137.048 11.896 137.544 12.872C138.04 13.848 138.288 14.96 138.288 16.208C138.288 16.464 138.208 16.672 138.048 16.832C137.888 16.976 137.68 17.048 137.424 17.048H127.224V15.512H137.616L136.584 16.256C136.6 15.328 136.432 14.496 136.08 13.76C135.728 13.024 135.224 12.448 134.568 12.032C133.928 11.616 133.16 11.408 132.264 11.408C131.352 11.408 130.552 11.624 129.864 12.056C129.176 12.488 128.64 13.088 128.256 13.856C127.888 14.608 127.704 15.472 127.704 16.448C127.704 17.424 127.912 18.288 128.328 19.04C128.76 19.792 129.344 20.384 130.08 20.816C130.816 21.248 131.664 21.464 132.624 21.464C133.2 21.464 133.776 21.368 134.352 21.176C134.944 20.968 135.416 20.712 135.768 20.408C135.944 20.264 136.144 20.192 136.368 20.192C136.592 20.176 136.784 20.232 136.944 20.36C137.152 20.552 137.256 20.76 137.256 20.984C137.272 21.208 137.184 21.4 136.992 21.56C136.464 22.008 135.792 22.384 134.976 22.688C134.16 22.976 133.376 23.12 132.624 23.12ZM152.31 23.12C151.366 23.12 150.43 22.96 149.502 22.64C148.574 22.32 147.822 21.84 147.246 21.2C147.07 21.008 146.998 20.792 147.03 20.552C147.062 20.312 147.182 20.104 147.39 19.928C147.614 19.768 147.846 19.704 148.086 19.736C148.326 19.768 148.526 19.872 148.686 20.048C149.07 20.496 149.574 20.84 150.198 21.08C150.838 21.32 151.542 21.44 152.31 21.44C153.494 21.44 154.35 21.24 154.878 20.84C155.406 20.424 155.678 19.928 155.694 19.352C155.694 18.776 155.422 18.304 154.878 17.936C154.334 17.552 153.438 17.256 152.19 17.048C150.574 16.792 149.39 16.344 148.638 15.704C147.886 15.064 147.51 14.304 147.51 13.424C147.51 12.608 147.726 11.928 148.158 11.384C148.59 10.84 149.166 10.432 149.886 10.16C150.606 9.888 151.398 9.752 152.262 9.752C153.334 9.752 154.254 9.936 155.022 10.304C155.806 10.672 156.438 11.168 156.918 11.792C157.078 12 157.142 12.216 157.11 12.44C157.078 12.664 156.95 12.848 156.726 12.992C156.534 13.104 156.31 13.144 156.054 13.112C155.814 13.064 155.606 12.944 155.43 12.752C155.03 12.288 154.566 11.952 154.038 11.744C153.51 11.52 152.902 11.408 152.214 11.408C151.334 11.408 150.63 11.592 150.102 11.96C149.574 12.312 149.31 12.76 149.31 13.304C149.31 13.672 149.406 13.992 149.598 14.264C149.806 14.536 150.15 14.776 150.63 14.984C151.126 15.192 151.814 15.368 152.694 15.512C153.894 15.704 154.838 15.992 155.526 16.376C156.23 16.744 156.726 17.184 157.014 17.696C157.318 18.192 157.47 18.736 157.47 19.328C157.47 20.08 157.246 20.744 156.798 21.32C156.366 21.88 155.758 22.32 154.974 22.64C154.206 22.96 153.318 23.12 152.31 23.12ZM166.255 23.12C164.959 23.12 163.807 22.84 162.799 22.28C161.807 21.704 161.023 20.912 160.447 19.904C159.887 18.896 159.607 17.744 159.607 16.448C159.607 15.136 159.871 13.984 160.399 12.992C160.943 11.984 161.687 11.192 162.631 10.616C163.575 10.04 164.663 9.752 165.895 9.752C167.111 9.752 168.167 10.032 169.063 10.592C169.975 11.136 170.679 11.896 171.175 12.872C171.671 13.848 171.919 14.96 171.919 16.208C171.919 16.464 171.839 16.672 171.679 16.832C171.519 16.976 171.311 17.048 171.055 17.048H160.855V15.512H171.247L170.215 16.256C170.231 15.328 170.063 14.496 169.711 13.76C169.359 13.024 168.855 12.448 168.199 12.032C167.559 11.616 166.791 11.408 165.895 11.408C164.983 11.408 164.183 11.624 163.495 12.056C162.807 12.488 162.271 13.088 161.887 13.856C161.519 14.608 161.335 15.472 161.335 16.448C161.335 17.424 161.543 18.288 161.959 19.04C162.391 19.792 162.975 20.384 163.711 20.816C164.447 21.248 165.295 21.464 166.255 21.464C166.831 21.464 167.407 21.368 167.983 21.176C168.575 20.968 169.047 20.712 169.399 20.408C169.575 20.264 169.775 20.192 169.999 20.192C170.223 20.176 170.415 20.232 170.575 20.36C170.783 20.552 170.887 20.76 170.887 20.984C170.903 21.208 170.815 21.4 170.623 21.56C170.095 22.008 169.423 22.384 168.607 22.688C167.791 22.976 167.007 23.12 166.255 23.12ZM180.397 23.144C179.261 23.144 178.245 22.912 177.349 22.448C176.453 21.968 175.741 21.272 175.213 20.36C174.701 19.448 174.445 18.336 174.445 17.024V10.784C174.445 10.528 174.533 10.312 174.709 10.136C174.885 9.96 175.101 9.872 175.357 9.872C175.629 9.872 175.853 9.96 176.029 10.136C176.205 10.312 176.293 10.528 176.293 10.784V17.024C176.293 18.016 176.477 18.832 176.845 19.472C177.229 20.112 177.741 20.592 178.381 20.912C179.037 21.232 179.773 21.392 180.589 21.392C181.373 21.392 182.077 21.24 182.701 20.936C183.341 20.632 183.845 20.216 184.213 19.688C184.581 19.16 184.765 18.56 184.765 17.888H186.085C186.037 18.896 185.757 19.8 185.245 20.6C184.749 21.384 184.077 22.008 183.229 22.472C182.381 22.92 181.437 23.144 180.397 23.144ZM185.677 23C185.405 23 185.181 22.92 185.005 22.76C184.845 22.584 184.765 22.352 184.765 22.064V10.784C184.765 10.512 184.845 10.296 185.005 10.136C185.181 9.96 185.405 9.872 185.677 9.872C185.949 9.872 186.173 9.96 186.349 10.136C186.525 10.296 186.613 10.512 186.613 10.784V22.064C186.613 22.352 186.525 22.584 186.349 22.76C186.173 22.92 185.949 23 185.677 23ZM198.175 28.616C197.887 28.616 197.655 28.528 197.479 28.352C197.319 28.192 197.239 27.968 197.239 27.68V16.352C197.255 15.104 197.551 13.984 198.127 12.992C198.719 11.984 199.511 11.192 200.503 10.616C201.511 10.04 202.639 9.752 203.887 9.752C205.167 9.752 206.311 10.048 207.319 10.64C208.327 11.216 209.119 12.008 209.695 13.016C210.287 14.024 210.583 15.168 210.583 16.448C210.583 17.712 210.295 18.848 209.719 19.856C209.159 20.864 208.391 21.664 207.415 22.256C206.439 22.832 205.335 23.12 204.103 23.12C203.031 23.12 202.055 22.896 201.175 22.448C200.311 21.984 199.615 21.376 199.087 20.624V27.68C199.087 27.968 198.999 28.192 198.823 28.352C198.663 28.528 198.447 28.616 198.175 28.616ZM203.887 21.44C204.815 21.44 205.647 21.224 206.383 20.792C207.119 20.36 207.695 19.768 208.111 19.016C208.543 18.248 208.759 17.392 208.759 16.448C208.759 15.488 208.543 14.632 208.111 13.88C207.695 13.128 207.119 12.536 206.383 12.104C205.647 11.656 204.815 11.432 203.887 11.432C202.975 11.432 202.151 11.656 201.415 12.104C200.679 12.536 200.103 13.128 199.687 13.88C199.271 14.632 199.063 15.488 199.063 16.448C199.063 17.392 199.271 18.248 199.687 19.016C200.103 19.768 200.679 20.36 201.415 20.792C202.151 21.224 202.975 21.44 203.887 21.44ZM219.8 23.12C218.504 23.12 217.352 22.84 216.344 22.28C215.352 21.704 214.568 20.912 213.992 19.904C213.432 18.896 213.152 17.744 213.152 16.448C213.152 15.136 213.416 13.984 213.944 12.992C214.488 11.984 215.232 11.192 216.176 10.616C217.12 10.04 218.208 9.752 219.44 9.752C220.656 9.752 221.712 10.032 222.608 10.592C223.52 11.136 224.224 11.896 224.72 12.872C225.216 13.848 225.464 14.96 225.464 16.208C225.464 16.464 225.384 16.672 225.224 16.832C225.064 16.976 224.856 17.048 224.6 17.048H214.4V15.512H224.792L223.76 16.256C223.776 15.328 223.608 14.496 223.256 13.76C222.904 13.024 222.4 12.448 221.744 12.032C221.104 11.616 220.336 11.408 219.44 11.408C218.528 11.408 217.728 11.624 217.04 12.056C216.352 12.488 215.816 13.088 215.432 13.856C215.064 14.608 214.88 15.472 214.88 16.448C214.88 17.424 215.088 18.288 215.504 19.04C215.936 19.792 216.52 20.384 217.256 20.816C217.992 21.248 218.84 21.464 219.8 21.464C220.376 21.464 220.952 21.368 221.528 21.176C222.12 20.968 222.592 20.712 222.944 20.408C223.12 20.264 223.32 20.192 223.544 20.192C223.768 20.176 223.96 20.232 224.12 20.36C224.328 20.552 224.432 20.76 224.432 20.984C224.448 21.208 224.36 21.4 224.168 21.56C223.64 22.008 222.968 22.384 222.152 22.688C221.336 22.976 220.552 23.12 219.8 23.12ZM232.814 23.12C231.87 23.12 230.934 22.96 230.006 22.64C229.078 22.32 228.326 21.84 227.75 21.2C227.574 21.008 227.502 20.792 227.534 20.552C227.566 20.312 227.686 20.104 227.894 19.928C228.118 19.768 228.35 19.704 228.59 19.736C228.83 19.768 229.03 19.872 229.19 20.048C229.574 20.496 230.078 20.84 230.702 21.08C231.342 21.32 232.046 21.44 232.814 21.44C233.998 21.44 234.854 21.24 235.382 20.84C235.91 20.424 236.182 19.928 236.198 19.352C236.198 18.776 235.926 18.304 235.382 17.936C234.838 17.552 233.942 17.256 232.694 17.048C231.078 16.792 229.894 16.344 229.142 15.704C228.39 15.064 228.014 14.304 228.014 13.424C228.014 12.608 228.23 11.928 228.662 11.384C229.094 10.84 229.67 10.432 230.39 10.16C231.11 9.888 231.902 9.752 232.766 9.752C233.838 9.752 234.758 9.936 235.526 10.304C236.31 10.672 236.942 11.168 237.422 11.792C237.582 12 237.646 12.216 237.614 12.44C237.582 12.664 237.454 12.848 237.23 12.992C237.038 13.104 236.814 13.144 236.558 13.112C236.318 13.064 236.11 12.944 235.934 12.752C235.534 12.288 235.07 11.952 234.542 11.744C234.014 11.52 233.406 11.408 232.718 11.408C231.838 11.408 231.134 11.592 230.606 11.96C230.078 12.312 229.814 12.76 229.814 13.304C229.814 13.672 229.91 13.992 230.102 14.264C230.31 14.536 230.654 14.776 231.134 14.984C231.63 15.192 232.318 15.368 233.198 15.512C234.398 15.704 235.342 15.992 236.03 16.376C236.734 16.744 237.23 17.184 237.518 17.696C237.822 18.192 237.974 18.736 237.974 19.328C237.974 20.08 237.75 20.744 237.302 21.32C236.87 21.88 236.262 22.32 235.478 22.64C234.71 22.96 233.822 23.12 232.814 23.12ZM246.783 23.12C245.503 23.12 244.359 22.832 243.351 22.256C242.343 21.68 241.551 20.888 240.975 19.88C240.399 18.872 240.111 17.728 240.111 16.448C240.111 15.152 240.399 14 240.975 12.992C241.551 11.984 242.343 11.192 243.351 10.616C244.359 10.04 245.503 9.752 246.783 9.752C248.063 9.752 249.199 10.04 250.191 10.616C251.199 11.192 251.991 11.984 252.567 12.992C253.143 14 253.439 15.152 253.455 16.448C253.455 17.728 253.159 18.872 252.567 19.88C251.991 20.888 251.199 21.68 250.191 22.256C249.199 22.832 248.063 23.12 246.783 23.12ZM246.783 21.44C247.711 21.44 248.543 21.224 249.279 20.792C250.015 20.36 250.591 19.768 251.007 19.016C251.423 18.264 251.631 17.408 251.631 16.448C251.631 15.488 251.423 14.632 251.007 13.88C250.591 13.112 250.015 12.512 249.279 12.08C248.543 11.648 247.711 11.432 246.783 11.432C245.855 11.432 245.023 11.648 244.287 12.08C243.551 12.512 242.967 13.112 242.535 13.88C242.119 14.632 241.911 15.488 241.911 16.448C241.911 17.408 242.119 18.264 242.535 19.016C242.967 19.768 243.551 20.36 244.287 20.792C245.023 21.224 245.855 21.44 246.783 21.44Z" fill="white"/>
<path d="M21.875 3.125H20.6064C21.4082 4.50586 21.875 6.104 21.875 7.8125C21.875 12.9819 17.6694 17.1875 12.5 17.1875C7.33057 17.1875 3.125 12.9819 3.125 7.8125C3.125 6.104 3.5918 4.50586 4.39355 3.125H3.125C1.40186 3.125 0 4.52686 0 6.25V21.875C0 23.5981 1.40186 25 3.125 25H21.875C23.5981 25 25 23.5981 25 21.875V6.25C25 4.52686 23.5981 3.125 21.875 3.125ZM12.5 15.625C16.8149 15.625 20.3125 12.1274 20.3125 7.8125C20.3125 3.49756 16.8149 0 12.5 0C8.18506 0 4.6875 3.49756 4.6875 7.8125C4.6875 12.1274 8.18506 15.625 12.5 15.625ZM12.4854 8.20605L14.125 4.37988C14.2959 3.98096 14.7568 3.79785 15.1519 3.96924C15.5483 4.13916 15.7319 4.59863 15.5625 4.99463L13.9185 8.83008C14.2446 9.17969 14.4531 9.64111 14.4531 10.1562C14.4531 11.2349 13.5786 12.1094 12.5 12.1094C11.4214 12.1094 10.5469 11.2349 10.5469 10.1562C10.5469 9.08301 11.4141 8.21436 12.4854 8.20605Z" fill="white"/>
</svg>
